<?xml version="1.0" encoding="iso-8859-1"?>
<!-- Generator: Adobe Illustrator 16.0.0, SVG Export Plug-In . SVG Version: 6.00 Build 0)  -->
<!DOCTYPE svg PUBLIC "-//W3C//DTD SVG 1.1//EN" "http://www.w3.org/Graphics/SVG/1.1/DTD/svg11.dtd">
<svg version="1.1" id="Layer_1" xmlns="http://www.w3.org/2000/svg" xmlns:xlink="http://www.w3.org/1999/xlink" x="0px" y="0px"
	 width="31.874px" height="24.157px" viewBox="0 0 31.874 24.157" style="enable-background:new 0 0 31.874 24.157;"
	 xml:space="preserve">
<g>
	<path d="M28.635,21.322c-0.332-0.592-1.108-1.975-1.911-3.156c-0.27-0.396-0.541-0.765-0.787-1.099
		c-0.393-0.535-0.88-1.202-0.885-1.398c0.029-0.868,0.009-2.921,0.002-3.555h0.512v-0.899h-6.479v0.899h0.679
		c-0.007,0.634-0.028,2.686,0.002,3.553c-0.004,0.198-0.493,0.865-0.886,1.4c-0.244,0.333-0.516,0.703-0.786,1.099
		c-0.803,1.182-1.579,2.564-1.911,3.156l-0.088,0.157c-0.342,0.603-0.345,1.426-0.011,2.001c0.254,0.436,0.663,0.677,1.148,0.677
		h10.351h0.001c0.485,0,0.894-0.241,1.147-0.677c0.335-0.575,0.332-1.399-0.01-2.001L28.635,21.322z M28.091,23.105
		c-0.119,0.204-0.289,0.308-0.506,0.308H17.234c-0.215,0-0.385-0.104-0.504-0.308c-0.202-0.346-0.195-0.889,0.016-1.262l0.089-0.159
		c0.327-0.583,1.093-1.946,1.879-3.101c0.263-0.388,0.529-0.75,0.771-1.079c0.686-0.935,1.043-1.442,1.03-1.863
		c-0.027-0.772-0.013-2.568-0.004-3.343h3.803c0.008,0.775,0.023,2.571-0.004,3.343c-0.014,0.421,0.343,0.928,1.029,1.863
		c0.241,0.329,0.507,0.691,0.77,1.079c0.786,1.154,1.552,2.518,1.879,3.101l0.089,0.159C28.287,22.217,28.293,22.759,28.091,23.105z
		"/>
	<path d="M27.596,21.56c-0.194-0.347-0.651-1.161-1.123-1.854c-0.121-0.179-0.241-0.343-0.356-0.5h-7.413
		c-0.115,0.157-0.234,0.322-0.355,0.5c-0.472,0.693-0.929,1.507-1.124,1.854l-0.052,0.093c-0.202,0.355-0.203,0.837-0.006,1.176
		c0.15,0.257,0.389,0.399,0.675,0.399h0.649h2.405h3.03h2.42h0.634c0.284,0,0.525-0.142,0.675-0.399
		c0.195-0.339,0.194-0.821-0.007-1.176L27.596,21.56z"/>
	<path d="M26.091,12.48v1.492h0.774v3.454c0.127,0.176,0.255,0.357,0.383,0.545c0.115,0.167,0.227,0.339,0.339,0.511v-4.51h2.792
		v7.858c0.001,0.416-0.118,0.764-0.336,0.981c-0.104,0.104-0.233,0.183-0.389,0.235c-0.04,0.245-0.105,0.482-0.226,0.686
		c-0.021,0.037-0.048,0.063-0.071,0.096c0.493-0.043,0.898-0.208,1.197-0.508c0.353-0.353,0.547-0.884,0.546-1.5v-7.849h0.774V12.48
		H26.091z"/>
	<path d="M29.656,22.325c0.122-0.191,0.123-0.414,0.123-0.459c0-0.085,0-4.035,0-4.035h-1.591c0,0,0,0.752,0,1.608
		c0.492,0.813,0.908,1.553,1.134,1.955l0.096,0.169C29.548,21.794,29.616,22.057,29.656,22.325z"/>
	<path d="M18.208,16.468c0.393-0.535,0.881-1.201,0.886-1.4c-0.013-0.391-0.016-1.023-0.016-1.657H1.797L0,21.555h15.206
		c0.038-0.239,0.101-0.471,0.217-0.675l0.087-0.156c0.333-0.592,1.109-1.976,1.912-3.157C17.692,17.171,17.962,16.803,18.208,16.468
		z M10.208,20.434l0.366-1.659h4.29l0.366,1.659H10.208z"/>
	<polygon points="18.307,11.606 3.4,11.606 3.4,1.545 10.38,1.545 15.058,1.545 22.038,1.545 22.038,10.616 23.583,10.616 
		23.583,7.897 23.583,7.897 23.583,0 15.386,0 10.05,0 1.854,0 1.854,7.897 1.854,12.895 18.307,12.895 	"/>
	<path d="M8.548,8.743V4.815H7.622C7.614,4.978,7.576,5.113,7.506,5.225s-0.159,0.2-0.268,0.266
		C7.129,5.556,7.007,5.603,6.871,5.631C6.736,5.66,6.597,5.672,6.454,5.668V6.48h0.92v2.263H8.548z"/>
	<polygon points="11.695,8.743 11.695,7.75 12.688,7.75 12.688,6.887 11.695,6.887 11.695,5.894 10.833,5.894 10.833,6.887 
		9.839,6.887 9.839,7.75 10.833,7.75 10.833,8.743 	"/>
	<path d="M15.703,8.743V4.815h-0.926c-0.007,0.163-0.046,0.298-0.116,0.409s-0.159,0.2-0.268,0.266
		c-0.11,0.066-0.232,0.113-0.367,0.141c-0.136,0.029-0.275,0.041-0.417,0.038V6.48h0.919v2.263H15.703z"/>
	<rect x="16.994" y="6.204" width="2.85" height="0.864"/>
	<rect x="16.994" y="7.564" width="2.85" height="0.864"/>
</g>
<g>
</g>
<g>
</g>
<g>
</g>
<g>
</g>
<g>
</g>
<g>
</g>
<g>
</g>
<g>
</g>
<g>
</g>
<g>
</g>
<g>
</g>
<g>
</g>
<g>
</g>
<g>
</g>
<g>
</g>
</svg>
