<?xml version="1.0" encoding="utf-8"?>
<!-- Generator: Adobe Illustrator 16.0.0, SVG Export Plug-In . SVG Version: 6.00 Build 0)  -->
<!DOCTYPE svg PUBLIC "-//W3C//DTD SVG 1.1//EN" "http://www.w3.org/Graphics/SVG/1.1/DTD/svg11.dtd">
<svg version="1.1" id="Layer_1" xmlns="http://www.w3.org/2000/svg" xmlns:xlink="http://www.w3.org/1999/xlink" x="0px" y="0px"
	 width="126px" height="126px" viewBox="0 0 126 126" enable-background="new 0 0 126 126" xml:space="preserve">
<path d="M36.583,20.667H11.917v24.666h24.666V20.667z M32.583,41.333H15.917V24.667h16.666V41.333z M11.917,105.333h24.666V80.667
	H11.917V105.333z M15.917,84.667h16.666v16.666H15.917V84.667z M89.417,80.667v24.666h24.666V80.667H89.417z M110.083,101.333
	H93.417V84.667h16.666V101.333z M50.667,75.184h24.666V50.518H50.667V75.184z M54.667,54.518h16.666v16.666H54.667V54.518z
	 M27.5,60.351h18.751v5H27.5v11.733h-5V49.017h5V60.351z M99.25,65.351H78.501v-5h23.25v0.017h2.499v16.716h-5V65.351z"/>
</svg>
