<?xml version="1.0" encoding="utf-8"?>
<!-- Generator: Adobe Illustrator 17.0.0, SVG Export Plug-In . SVG Version: 6.00 Build 0)  -->
<!DOCTYPE svg PUBLIC "-//W3C//DTD SVG 1.1//EN" "http://www.w3.org/Graphics/SVG/1.1/DTD/svg11.dtd">
<svg version="1.1" id="Capa_1" xmlns="http://www.w3.org/2000/svg" xmlns:xlink="http://www.w3.org/1999/xlink" x="0px" y="0px"
	 width="64px" height="64px" viewBox="0 0 64 64" enable-background="new 0 0 64 64" xml:space="preserve">
<g>
	<path d="M56.928,10.234c-1.657,0-3,1.343-3,3v4.253l-5.652,3.396c-0.451,0.272-1.52,0.263-1.969-0.021l-4.171-2.622
		c-2.33-1.465-5.778-1.58-8.199-0.275l-5.518,2.971c-0.482,0.26-1.588,0.206-2.044-0.098l-3.713-2.481
		c-2.319-1.55-5.78-1.707-8.231-0.373l-3.608,1.965v-6.715c0-1.657-1.343-3-3-3s-3,1.343-3,3v40.192c0,3.309,2.691,6,6,6h43.105
		c3.309,0,6-2.691,6-6V13.234C59.928,11.577,58.585,10.234,56.928,10.234z M53.928,53.427H10.822V26.782l6.478-3.528
		c0.477-0.259,1.575-0.211,2.027,0.092l3.713,2.481c2.315,1.547,5.774,1.712,8.225,0.392l5.517-2.971
		c0.505-0.271,1.675-0.234,2.162,0.073l4.171,2.622c2.376,1.493,5.849,1.529,8.252,0.083l2.562-1.539V53.427z"/>
	<path d="M33.883,31.425c-0.833-0.833-2.182-0.833-3.015,0l-6.533,6.533c-0.833,0.833-0.553,1.508,0.624,1.508h3.152v6.396
		c0,1.177,0.955,2.132,2.132,2.132h4.264c1.177,0,2.132-0.955,2.132-2.132v-6.396h3.152c1.177,0,1.457-0.675,0.624-1.508
		L33.883,31.425z"/>
</g>
</svg>
